<svg xmlns="http://www.w3.org/2000/svg" viewBox="0 0 1200 760"><defs><radialGradient id="sky" cx="50%" cy="45%"><stop stop-color="#3b356f"/><stop offset=".45" stop-color="#161a3b"/><stop offset="1" stop-color="#070812"/></radialGradient><linearGradient id="gold" x1="0" x2="1"><stop stop-color="#7a4a13"/><stop offset=".45" stop-color="#ffe7a0"/><stop offset="1" stop-color="#9b601b"/></linearGradient><linearGradient id="crystal" x1="0" y1="1" x2="1"><stop stop-color="#0a5b9b"/><stop offset=".45" stop-color="#9ff4ff"/><stop offset="1" stop-color="#2b7fff"/></linearGradient><filter id="glow"><feGaussianBlur stdDeviation="12" result="b"/><feMerge><feMergeNode in="b"/><feMergeNode in="SourceGraphic"/></feMerge></filter><filter id="soft"><feGaussianBlur stdDeviation="30"/></filter></defs><rect width="1200" height="760" fill="url(#sky)"/><circle cx="875" cy="160" r="115" fill="#9d82ff" opacity=".16" filter="url(#soft)"/><circle cx="300" cy="390" r="130" fill="#3bcfff" opacity=".12" filter="url(#soft)"/><g fill="#080914" stroke="#2c2445" stroke-width="4"><path d="M0 620L130 470l90 90 100-170 130 230 115-145 125 145 120-195 145 195 130-120 115 120v140H0z"/><path d="M730 600V330l55-65 48 65v270zM825 600V250l70-90 70 90v350zM940 600V310l55-60 55 60v290z"/></g><g stroke="url(#gold)" fill="#0b0b16"><path d="M700 600V345h280v255z" stroke-width="8"/><path d="M740 345l100-120 100 120z" stroke-width="8"/><path d="M795 600V425h90v175z" stroke-width="6"/><path d="M755 395h55v38h-55zM870 395h55v38h-55z" stroke-width="5"/><path d="M825 275h60v55h-60z" stroke-width="5"/></g><g filter="url(#glow)"><path d="M845 275l52 84-52 112-52-112z" fill="url(#crystal)" stroke="#d8fbff" stroke-width="4"/><path d="M845 275v196M793 359h104" stroke="#d8fbff" stroke-width="3" opacity=".8"/></g><g transform="translate(230 80)"><path d="M0 250Q50 110 170 110t170 140v300H0z" fill="#090b17" stroke="url(#gold)" stroke-width="7"/><path d="M55 240Q70 115 170 115t115 125v120H55z" fill="#2b1932" stroke="#7c4d79" stroke-width="3"/><ellipse cx="170" cy="205" rx="73" ry="92" fill="#b47e78"/><path d="M100 175Q120 105 170 112q65 4 77 72-35-35-62-22-45 18-85 13z" fill="#17111d"/><path d="M108 142l-35-55 62 20 35-57 35 57 62-20-35 55" fill="none" stroke="url(#gold)" stroke-width="12"/><circle cx="170" cy="82" r="13" fill="#72eaff" filter="url(#glow)"/><path d="M110 292q60 55 120 0v150H110z" fill="#13182c" stroke="#b78335" stroke-width="4"/><path d="M125 330l45 25 45-25" fill="none" stroke="#6bdfff" stroke-width="6"/><path d="M145 355l25 58 25-58" fill="url(#crystal)" stroke="#d8fbff" stroke-width="3" filter="url(#glow)"/></g><g fill="#ffe7a0" opacity=".85"><circle cx="90" cy="120" r="3"/><circle cx="430" cy="105" r="4"/><circle cx="570" cy="220" r="2"/><circle cx="1080" cy="160" r="3"/><circle cx="1040" cy="410" r="2"/><circle cx="620" cy="100" r="3"/></g><path d="M35 35h1130v690H35z" fill="none" stroke="url(#gold)" stroke-width="3"/><path d="M55 55h1090v650H55z" fill="none" stroke="#d7a13a55"/></svg>